<svg xmlns="http://www.w3.org/2000/svg" width="1200" height="750" viewBox="0 0 1200 750"><defs><linearGradient id="g" x1="0" y1="0" x2="1" y2="1"><stop offset="0" stop-color="#0f172a"/><stop offset=".55" stop-color="#12243a"/><stop offset="1" stop-color="#0b3b2a"/></linearGradient><radialGradient id="r" cx="35%" cy="25%" r="70%"><stop offset="0" stop-color="#04bf55" stop-opacity=".35"/><stop offset="1" stop-color="#04bf55" stop-opacity="0"/></radialGradient></defs><rect width="1200" height="750" rx="42" fill="url(#g)"/><rect width="1200" height="750" rx="42" fill="url(#r)"/><g fill="none" stroke="#04bf55" stroke-width="12" opacity=".42" stroke-linecap="round"><path d="M330 405h540"/><path d="M430 305h340"/><path d="M500 505h200"/></g><circle cx="600" cy="375" r="116" fill="#fff" opacity=".08"/><path d="M560 320h95a50 50 0 0 1 50 50v10a50 50 0 0 1-50 50h-110l-50 48v-108a50 50 0 0 1 50-50h15z" fill="#04bf55" opacity=".85"/><text x="600" y="615" text-anchor="middle" fill="#e5eefb" font-family="Poppins,Arial,sans-serif" font-size="42" font-weight="700">Workly</text><text x="600" y="662" text-anchor="middle" fill="#9fb0c7" font-family="Poppins,Arial,sans-serif" font-size="24">Serviço freelancer</text></svg>
